<svg xmlns="http://www.w3.org/2000/svg" viewBox="0 0 157 217"><path d="M.869 203.329c1.787-33.955 10.097-72.467 20.373-94.18 8.221-17.425 22.249-27.521 46.107-33.419 8.042-1.966 16.709-7.148 12.063-7.238-1.608 0-1.876-.804-1.608-4.2.268-4.021.536-4.289 4.646-4.825l4.289-.536 5.808-16.71c3.217-9.203 6.344-17.871 7.148-19.211 1.876-3.485 7.863-8.221 11.348-8.846 2.323-.536 3.574-2.055 5.897-7.238 2.055-4.825 3.485-6.612 5.093-6.612 2.949 0 4.289 1.876 5.987 8.31 1.251 4.736 2.234 5.897 7.595 9.293 7.238 4.646 19.926 17.514 20.82 21.177.357 1.43-.089 4.468-.983 6.702l-1.698 4.2-10.008-.357c-9.918-.447-10.008-.358-14.029 3.127-5.183 4.557-5.451 7.863-.804 7.863 3.127 0 3.395.268 3.395 3.931 0 3.396-.357 3.842-2.77 3.842-1.608 0-2.859.268-2.859.536s2.055 4.646 4.468 9.65c7.059 14.565 7.059 14.743-1.072 30.738-6.434 12.867-7.059 14.565-9.025 28.058-1.162 7.863-3.485 20.82-5.093 28.772-2.055 10.097-2.949 18.496-3.038 27.432l-.179 12.778 7.059.625c6.076.447 7.506.983 9.829 3.663 5.093 5.897 4.289 6.344-12.778 6.344h-15.458l-2.145-10.901c-1.876-9.65-2.055-14.833-1.787-45.303l.357-34.402-3.038 1.966c-4.825 3.128-12.331 14.208-14.922 21.892-1.251 3.842-3.574 14.297-5.093 23.143-3.217 18.05-5.451 26.628-7.774 29.755-2.145 2.77-2.145 3.842.089 3.842s8.221 5.987 8.221 8.221c0 1.608-4.11 1.787-37.529 1.787H.154l.715-13.669z"/></svg>