<svg xmlns="http://www.w3.org/2000/svg" width="46mm" height="19mm" viewBox="0 0 46 19"><path d="M41.736 18.668c-.232-.127-.81-.448-1.285-.714-1.906-1.067-6.452-6.33-6.459-7.479-.004-.718-.18-.83-1.009-.643-2.253.506-3.96 5.448-2.186 6.333.732.365 1.346.93 1.346 1.24 0 .728-3.207.087-3.672-.734-.68-1.2-.717-4.99-.06-6.051.377-.612.377-.612-.596-.883-.535-.15-1.632-.54-2.438-.867-2.176-.884-2.294-.838-2.891 1.111-.923 3.014-.633 5.553.662 5.796.673.127 1.59.901 1.59 1.343 0 .392-2.612.382-3.201-.012-1.44-.964-2.064-2.064-2.42-4.273-.353-2.2-1.512-3.878-2.212-3.205-.088.085-.83.423-1.65.752-4.045 1.62-6.807 5.255-4.559 5.997.583.192.916.585.916 1.08 0 .51-3.118.372-3.462-.154-1.181-1.802-.416-5.775 1.303-6.77 1.42-.823 3.674-3.718 3.674-4.72 0-.897-2.65.433-5.098 2.558-2.83 2.457-4.8 2.997-6.505 1.783C.025 9.089.143 5.814 1.708 5.004c1.154-.597 1.598.098.901 1.407-.79 1.485-.302 2.392 1.286 2.392 1.56 0 3.073-1.057 5.238-3.66 1.277-1.535 2.41-2.275 4.082-2.669.646-.152 1.78-.452 2.52-.666 1.813-.525 3.124-.746 4.449-.748.729-.002 1.563-.152 2.451-.44 1.983-.646 3.489-.602 6.962.202 3.05.707 2.356.71 6.501-.03 2.656-.474 5.638.007 5.638.91 0 .249.185.137.817-.496C43.73.031 44.26.407 44.26 2.415c0 .68.106 1.012.512 1.602.538.782.555.899.432 2.974-.104 1.746-.17 1.896-1.002 2.287-.395.186-.818.458-.94.605-.514.62-1.695-.43-1.695-1.506 0-.812-.264-1.173-1.117-1.53-.298-.124-.59-.303-.648-.397-.145-.235-.816-.215-1.062.03-.468.469-.25 2.908.369 4.137.313.623.847 2.02 1.185 3.104.695 2.227 1.19 2.905 2.248 3.085 1.779.304 2.391.726 2.391 1.647 0 .494-2.394.655-3.197.215z" stroke-width=".168"/></svg>