<svg xmlns="http://www.w3.org/2000/svg" viewBox="0 0 20 22"><path fill="#FEFEFE" d="M1.413 21.636H.333l-.12-7.02-.12-7.02 1.56-1.98 1.62-2.04 3.12-1.56 3.12-1.62 5.04-.36 5.04-.36v2.1l-1.08 1.86-1.08 1.86-.06 2.64v2.64l-.78 2.82-.84 2.88-2.34 1.5-2.4 1.5-3.9-.3-3.9-.3-.36 1.38-.36 1.38h-1.08zm6.42-4.8l3.18-.48 1.68-1.92 1.68-1.92v-4.74l.66-2.82.66-2.76-2.34.42-2.34.42-3.24 1.5-3.18 1.5-1.14 2.16-1.08 2.1v3.3l3.06-3.48 3.06-3.48h2.88v2.16l-1.38.78-1.38.72-1.98 2.88-2.04 2.88v1.26l3.24-.48z"/></svg>