<svg xmlns="http://www.w3.org/2000/svg" viewBox="0 0 23 24"><path fill="#FEFEFE" d="M49.895 61.478l-10.2.24-.48-.54-.54-.54v-16.98h1.62l.36 1.38.36 1.38 2.22 1.26 2.16 1.32 3.3-1.92 3.24-1.92h3.36l1.32.72 1.38.72.42-1.44.36-1.5h1.68l-.18 8.82-.24 8.82-10.14.18zm-.36-2.1h8.64v-10.08l-2.04-.96-1.98-.96-.84.06h-.78l-3 2.04-3 2.04v3.78h-3.72l.12-2.4.06-2.4-1.02-.42-1.08-.36v9.66h8.64zm4.56-1.5h-.96l-.9-1.08-.9-1.08.24-1.74.24-1.68 1.74-.24 1.68-.3 1.08.9 1.14.9v1.98l-1.2 1.2-1.2 1.14h-.96zm.36-3h.96l-.48-.48-.48-.48-.54.48-.48.48h1.02zm-7.26-10.5h-.84l-.9-1.08-.9-1.08.24-1.74.24-1.68 1.86-.3 1.8-.24.96 1.26.9 1.26-.42 1.26-.48 1.26-.78.54-.84.54h-.84zm.54-2.64l.72-.42-.42-.72-.48-.72-.72.42-.66.48.42.66.42.72.72-.42zm-35.84-18.26l-10.2.24-.48-.54-.54-.54V5.658h1.62l.36 1.38.36 1.38 2.22 1.26 2.16 1.32 3.3-1.92 3.24-1.92h3.36l1.32.72 1.38.72.42-1.44.36-1.5h1.68l-.18 8.82-.24 8.82-10.14.18zm-.36-2.1h8.64v-10.08l-2.04-.96-1.98-.96-.84.06h-.78l-3 2.04-3 2.04v3.78h-3.72l.12-2.4.06-2.4-1.02-.42-1.08-.36v9.66h8.64zm4.56-1.5h-.96l-.9-1.08-.9-1.08.24-1.74.24-1.68 1.74-.24 1.68-.3 1.08.9 1.14.9v1.98l-1.2 1.2-1.2 1.14h-.96zm.36-3h.96l-.48-.48-.48-.48-.54.48-.48.48h1.02zm-7.26-10.5h-.84l-.9-1.08-.9-1.08.24-1.74.24-1.68 1.86-.3 1.8-.24.96 1.26.9 1.26-.42 1.26-.48 1.26-.78.54-.84.54h-.84zm.54-2.64l.72-.42-.42-.72-.48-.72-.72.42-.66.48.42.66.42.72.72-.42z"/></svg>