<svg xmlns="http://www.w3.org/2000/svg" viewBox="0 0 20 24"><path fill="#FEFEFE" d="M4.053 23.538h-1.14l.42-1.68.42-1.62-1.8-2.16-1.86-2.16v-8.04l1.98-2.4 2.04-2.34 1.56-.66 1.56-.6-2.1-.06-2.04-.06v-1.5h13.5v1.5l-2.04.06-2.1.06 1.56.6 1.56.66 2.04 2.34 1.98 2.4v8.04l-1.98 2.28-1.92 2.34.9 1.08.9 1.14-1.2.48-1.2.42-1.2-.96-1.2-1.02-2.94-.06-2.94-.06-.84.96-.84.96-1.08.06zm6.18-3.9h.72l-.9-.36-.96-.42v-2.1h2.28v2.28h.6l1.2-.48 1.2-.48-.9-1.08-.84-1.08.78-.78.84-.84 1.2.96 1.14.96v-.84l.48-1.2.42-1.14h-2.4v-2.28h2.28l-.06-.96v-.9l-1.44-1.86-1.5-1.92.48 1.68.42 1.74h-2.58l.48-1.86.42-1.86-1.86-.48-1.92-.48-1.68.42-1.68.42-1.5 1.14-1.5 1.2 1.26-.48 1.2-.42.54.9.54.84-.78.84-.78.78-1.08-.84-1.02-.9-.48.48-.48.54v1.98h2.22v2.28h-2.22v.84l.78 1.5.78 1.5 1.02-1.38 1.02-1.38.54 1.38.54 1.44-.96.54-.9.6 2.1.78 2.16.78h.78zm-.18-6.84l-.96.36v-8.4h2.34l-.24 3.9-.24 3.84-.9.3z"/></svg>