<?xml version="1.0" encoding="utf-8"?>
<!-- Generator: Adobe Illustrator 22.1.0, SVG Export Plug-In . SVG Version: 6.00 Build 0)  -->
<svg version="1.1" id="Слой_1" xmlns="http://www.w3.org/2000/svg" xmlns:xlink="http://www.w3.org/1999/xlink" x="0px" y="0px"
	 viewBox="0 0 157 217" enable-background="new 0 0 157 217" xml:space="preserve">
<path d="M0.869,203.329c1.787-33.955,10.097-72.467,20.373-94.18c8.221-17.425,22.249-27.521,46.107-33.419
	c8.042-1.966,16.709-7.148,12.063-7.238c-1.608,0-1.876-0.804-1.608-4.2c0.268-4.021,0.536-4.289,4.646-4.825l4.289-0.536
	l5.808-16.71c3.217-9.203,6.344-17.871,7.148-19.211c1.876-3.485,7.863-8.221,11.348-8.846c2.323-0.536,3.574-2.055,5.897-7.238
	c2.055-4.825,3.485-6.612,5.093-6.612c2.949,0,4.289,1.876,5.987,8.31c1.251,4.736,2.234,5.897,7.595,9.293
	c7.238,4.646,19.926,17.514,20.82,21.177c0.357,1.43-0.089,4.468-0.983,6.702l-1.698,4.2l-10.008-0.357
	c-9.918-0.447-10.008-0.358-14.029,3.127c-5.183,4.557-5.451,7.863-0.804,7.863c3.127,0,3.395,0.268,3.395,3.931
	c0,3.396-0.357,3.842-2.77,3.842c-1.608,0-2.859,0.268-2.859,0.536c0,0.268,2.055,4.646,4.468,9.65
	c7.059,14.565,7.059,14.743-1.072,30.738c-6.434,12.867-7.059,14.565-9.025,28.058c-1.162,7.863-3.485,20.82-5.093,28.772
	c-2.055,10.097-2.949,18.496-3.038,27.432l-0.179,12.778l7.059,0.625c6.076,0.447,7.506,0.983,9.829,3.663
	c5.093,5.897,4.289,6.344-12.778,6.344h-15.458l-2.145-10.901c-1.876-9.65-2.055-14.833-1.787-45.303l0.357-34.402l-3.038,1.966
	c-4.825,3.128-12.331,14.208-14.922,21.892c-1.251,3.842-3.574,14.297-5.093,23.143c-3.217,18.05-5.451,26.628-7.774,29.755
	c-2.145,2.77-2.145,3.842,0.089,3.842c2.234,0,8.221,5.987,8.221,8.221c0,1.608-4.11,1.787-37.529,1.787H0.154L0.869,203.329z"/>
<g>
</g>
<g>
</g>
<g>
</g>
<g>
</g>
<g>
</g>
<g>
</g>
<g>
</g>
<g>
</g>
<g>
</g>
<g>
</g>
<g>
</g>
<g>
</g>
<g>
</g>
<g>
</g>
<g>
</g>
</svg>
