<?xml version="1.0" encoding="utf-8"?>
<!-- Generator: Adobe Illustrator 22.1.0, SVG Export Plug-In . SVG Version: 6.00 Build 0)  -->
<svg version="1.1" id="Слой_1" xmlns="http://www.w3.org/2000/svg" xmlns:xlink="http://www.w3.org/1999/xlink" x="0px" y="0px"
	 viewBox="0 0 20 24" enable-background="new 0 0 20 24" xml:space="preserve">
<g>
	<path fill="#FEFEFE" d="M4.053,23.538h-1.14l0.42-1.68l0.42-1.62l-1.8-2.16l-1.86-2.16v-4.02v-4.02l1.98-2.4l2.04-2.34l1.56-0.66
		l1.56-0.6l-2.1-0.06l-2.04-0.06v-0.78v-0.72h6.72h6.78v0.72v0.78l-2.04,0.06l-2.1,0.06l1.56,0.6l1.56,0.66l2.04,2.34l1.98,2.4v4.02
		v4.02l-1.98,2.28l-1.92,2.34l0.9,1.08l0.9,1.14l-1.2,0.48l-1.2,0.42l-1.2-0.96l-1.2-1.02l-2.94-0.06l-2.94-0.06l-0.84,0.96
		l-0.84,0.96L4.053,23.538z M10.233,19.638h0.72l-0.9-0.36l-0.96-0.42v-1.02v-1.08h1.14h1.14v1.14v1.14h0.3h0.3l1.2-0.48l1.2-0.48
		l-0.9-1.08l-0.84-1.08l0.78-0.78l0.84-0.84l1.2,0.96l1.14,0.96v-0.42v-0.42l0.48-1.2l0.42-1.14h-1.2h-1.2v-1.14v-1.14h1.14h1.14
		l-0.06-0.96v-0.9l-1.44-1.86l-1.5-1.92l0.48,1.68l0.42,1.74h-1.32h-1.26l0.48-1.86l0.42-1.86l-1.86-0.48l-1.92-0.48l-1.68,0.42
		l-1.68,0.42l-1.5,1.14l-1.5,1.2l1.26-0.48l1.2-0.42l0.54,0.9l0.54,0.84l-0.78,0.84l-0.78,0.78l-1.08-0.84l-1.02-0.9l-0.48,0.48
		l-0.48,0.54v0.96v1.02h1.08h1.14v1.14v1.14h-1.14h-1.08v0.42v0.42l0.78,1.5l0.78,1.5l1.02-1.38l1.02-1.38l0.54,1.38l0.54,1.44
		l-0.96,0.54l-0.9,0.6l2.1,0.78l2.16,0.78H10.233z M10.053,12.798l-0.96,0.36v-4.2v-4.2h1.14h1.2l-0.24,3.9l-0.24,3.84
		L10.053,12.798z"/>
</g>
</svg>
