<?xml version="1.0" encoding="utf-8"?>
<!-- Generator: Adobe Illustrator 22.1.0, SVG Export Plug-In . SVG Version: 6.00 Build 0)  -->
<svg version="1.1" id="Слой_1" xmlns="http://www.w3.org/2000/svg" xmlns:xlink="http://www.w3.org/1999/xlink" x="0px" y="0px"
	 viewBox="0 0 20 24" enable-background="new 0 0 20 24" xml:space="preserve">
<g>
	<path fill="#FEFEFE" d="M4.453,23.296h-1.08v-6.66v-6.66l-1.14-0.96l-1.14-0.9v-3.66v-3.66h0.72h0.66l0.3,2.82l0.3,2.82l0.12-2.82
		l0.18-2.82h1.08h1.08l0.24,3.18l0.3,3.18l0.12-3.18l0.12-3.18h1.14h1.14v3.36v3.42l-1.5,1.26l-1.5,1.26v6.6v6.6H4.453z
		 M14.953,23.296h-1.08v-11.34V0.676l1.26,0.24l1.32,0.24l0.9,2.64l0.9,2.64l0.06,4.68v4.68h-1.08h-1.14v3.72v3.78H14.953z
		 M16.573,13.276l0.54-0.48l-0.54-0.54l-0.48-0.48v1.02v0.96L16.573,13.276z"/>
</g>
</svg>
