<?xml version="1.0" encoding="UTF-8" standalone="no"?>
<!-- Created with Inkscape (http://www.inkscape.org/) -->

<svg
   xmlns:dc="http://purl.org/dc/elements/1.1/"
   xmlns:cc="http://creativecommons.org/ns#"
   xmlns:rdf="http://www.w3.org/1999/02/22-rdf-syntax-ns#"
   xmlns:svg="http://www.w3.org/2000/svg"
   xmlns="http://www.w3.org/2000/svg"
   xmlns:sodipodi="http://sodipodi.sourceforge.net/DTD/sodipodi-0.dtd"
   xmlns:inkscape="http://www.inkscape.org/namespaces/inkscape"
   width="46mm"
   height="19mm"
   viewBox="0 0 46 19"
   version="1.1"
   id="svg8"
   inkscape:version="0.92.4 (5da689c313, 2019-01-14)"
   sodipodi:docname="jaguar.svg">
  <defs
     id="defs2" />
  <sodipodi:namedview
     id="base"
     pagecolor="#ffffff"
     bordercolor="#666666"
     borderopacity="1.0"
     inkscape:pageopacity="0.0"
     inkscape:pageshadow="2"
     inkscape:zoom="2.8"
     inkscape:cx="233.02083"
     inkscape:cy="91.468149"
     inkscape:document-units="mm"
     inkscape:current-layer="layer1"
     showgrid="false"
     inkscape:window-width="1920"
     inkscape:window-height="1017"
     inkscape:window-x="-8"
     inkscape:window-y="-8"
     inkscape:window-maximized="1"
     inkscape:snap-grids="false" />
  <metadata
     id="metadata5">
    <rdf:RDF>
      <cc:Work
         rdf:about="">
        <dc:format>image/svg+xml</dc:format>
        <dc:type
           rdf:resource="http://purl.org/dc/dcmitype/StillImage" />
        <dc:title></dc:title>
      </cc:Work>
    </rdf:RDF>
  </metadata>
  <g
     inkscape:label="Layer 1"
     inkscape:groupmode="layer"
     id="layer1"
     transform="translate(0,-278)">
    <path
       style="fill:#000000;stroke-width:0.16828676"
       d="m 41.73579,296.66791 c -0.231393,-0.12671 -0.809684,-0.4481 -1.285089,-0.71419 -1.905676,-1.06657 -6.451448,-6.3303 -6.458673,-7.47873 -0.0045,-0.71777 -0.179517,-0.8293 -1.008798,-0.64298 -2.253525,0.50633 -3.959313,5.44801 -2.186072,6.33304 0.73208,0.36538 1.346289,0.93083 1.346289,1.23939 0,0.72878 -3.207724,0.0879 -3.672902,-0.73386 -0.678735,-1.19895 -0.716446,-4.98873 -0.06023,-6.05055 0.37813,-0.61184 0.37813,-0.61184 -0.594897,-0.88343 -0.535169,-0.14937 -1.632453,-0.53943 -2.438423,-0.8668 -2.175723,-0.88373 -2.294174,-0.8382 -2.891146,1.11139 -0.922977,3.01426 -0.6331,5.55329 0.661746,5.7962 0.673483,0.12634 1.591212,0.90094 1.591212,1.34305 0,0.39195 -2.612374,0.38147 -3.202077,-0.0129 -1.440361,-0.96316 -2.063301,-2.0634 -2.418833,-4.27211 -0.354236,-2.20065 -1.512846,-3.87888 -2.212841,-3.20529 -0.08792,0.0846 -0.830723,0.42278 -1.650651,0.75147 -4.043929,1.62114 -6.8061934,5.25562 -4.558212,5.99752 0.582849,0.19236 0.916244,0.58524 0.916244,1.07972 0,0.51035 -3.1184707,0.37219 -3.4628637,-0.15342 -1.1808659,-1.80222 -0.4157511,-5.7754 1.3039166,-6.77113 1.4202981,-0.82237 3.6735281,-3.7174 3.6735281,-4.71985 0,-0.89673 -2.650906,0.43351 -5.0982659,2.55832 -2.8297858,2.45683 -4.7999967,2.99681 -6.504912,1.78281 -1.49855538,-1.06707 -1.38116901,-4.34208 0.1846582,-5.15181 1.1530998,-0.59628 1.5975623,0.0984 0.9005991,1.40767 -0.7901202,1.48423 -0.3023631,2.39171 1.2855122,2.39171 1.5600099,0 3.0731314,-1.05723 5.2386,-3.66024 1.2770024,-1.53503 2.4088404,-2.27515 4.0814264,-2.66885 0.645993,-0.15207 1.780365,-0.45193 2.520827,-0.66635 1.812931,-0.52497 3.123549,-0.74533 4.448435,-0.7479 0.728727,-0.002 1.56349,-0.15141 2.451325,-0.44045 1.982633,-0.64548 3.488418,-0.60157 6.961284,0.20297 3.049865,0.70655 2.356176,0.70978 6.501653,-0.0302 2.655537,-0.47407 5.637603,0.007 5.637603,0.90957 0,0.24913 0.184949,0.13704 0.817393,-0.49541 1.17548,-1.17548 1.706908,-0.79924 1.706908,1.20839 0,0.6812 0.105679,1.01218 0.511469,1.60198 0.538132,0.78214 0.555126,0.89918 0.432001,2.9741 -0.103637,1.74639 -0.169214,1.89617 -1.001414,2.28735 -0.39504,0.1857 -0.81794,0.45772 -0.939768,0.60453 -0.514096,0.61944 -1.694874,-0.42942 -1.694874,-1.50554 0,-0.81174 -0.264169,-1.17334 -1.117753,-1.52999 -0.298152,-0.12458 -0.58961,-0.30338 -0.647681,-0.39733 -0.145063,-0.23473 -0.815594,-0.21508 -1.061781,0.0311 -0.468053,0.46805 -0.250875,2.90675 0.368378,4.1364 0.313678,0.62288 0.847255,2.01964 1.185724,3.10389 0.695069,2.22656 1.189123,2.90483 2.24731,3.08521 1.778915,0.30326 2.391541,0.72516 2.391541,1.64698 0,0.49358 -2.394575,0.6543 -3.197453,0.2146 z"
       id="path21"
       inkscape:connector-curvature="0" />
    <rect
       id="rect23"
       width="0"
       height="0"
       x="90.336304"
       y="43.188988"
       style="stroke-width:0.26458332" />
  </g>
</svg>
