<?xml version="1.0" encoding="utf-8"?>
<!-- Generator: Adobe Illustrator 22.1.0, SVG Export Plug-In . SVG Version: 6.00 Build 0)  -->
<svg version="1.1" id="Слой_1" xmlns="http://www.w3.org/2000/svg" xmlns:xlink="http://www.w3.org/1999/xlink" x="0px" y="0px"
	 viewBox="0 0 20 22" enable-background="new 0 0 20 22" xml:space="preserve">
<g>
	<path fill="#FEFEFE" d="M1.413,21.636h-1.08l-0.12-7.02l-0.12-7.02l1.56-1.98l1.62-2.04l3.12-1.56l3.12-1.62l5.04-0.36l5.04-0.36
		v1.02v1.08l-1.08,1.86l-1.08,1.86l-0.06,2.64v2.64l-0.78,2.82l-0.84,2.88l-2.34,1.5l-2.4,1.5l-3.9-0.3l-3.9-0.3l-0.36,1.38
		l-0.36,1.38H1.413z M7.833,16.836l3.18-0.48l1.68-1.92l1.68-1.92v-2.34v-2.4l0.66-2.82l0.66-2.76l-2.34,0.42l-2.34,0.42l-3.24,1.5
		l-3.18,1.5l-1.14,2.16l-1.08,2.1v1.62v1.68l3.06-3.48l3.06-3.48h1.44h1.44v1.08v1.08l-1.38,0.78l-1.38,0.72l-1.98,2.88l-2.04,2.88
		v0.66v0.6L7.833,16.836z"/>
</g>
</svg>
