<?xml version="1.0" encoding="utf-8"?>
<!-- Generator: Adobe Illustrator 22.1.0, SVG Export Plug-In . SVG Version: 6.00 Build 0)  -->
<svg version="1.1" id="Слой_1" xmlns="http://www.w3.org/2000/svg" xmlns:xlink="http://www.w3.org/1999/xlink" x="0px" y="0px"
	 viewBox="0 0 23 24" enable-background="new 0 0 23 24" xml:space="preserve">
<g>
	<path fill="#FEFEFE" d="M49.895,61.478l-10.2,0.24l-0.48-0.54l-0.54-0.54v-8.46v-8.52h0.84h0.78l0.36,1.38l0.36,1.38l2.22,1.26
		l2.16,1.32l3.3-1.92l3.24-1.92h1.68h1.68l1.32,0.72l1.38,0.72l0.42-1.44l0.36-1.5h0.84h0.84l-0.18,8.82l-0.24,8.82L49.895,61.478z
		 M49.535,59.378h8.64v-5.04v-5.04l-2.04-0.96l-1.98-0.96l-0.84,0.06h-0.78l-3,2.04l-3,2.04v1.86v1.92h-1.86h-1.86l0.12-2.4
		l0.06-2.4l-1.02-0.42l-1.08-0.36v4.86v4.8H49.535z M54.095,57.878h-0.96l-0.9-1.08l-0.9-1.08l0.24-1.74l0.24-1.68l1.74-0.24
		l1.68-0.3l1.08,0.9l1.14,0.9v1.02v0.96l-1.2,1.2l-1.2,1.14H54.095z M54.455,54.878h0.96l-0.48-0.48l-0.48-0.48l-0.54,0.48
		l-0.48,0.48H54.455z M47.195,44.378h-0.84l-0.9-1.08l-0.9-1.08l0.24-1.74l0.24-1.68l1.86-0.3l1.8-0.24l0.96,1.26l0.9,1.26
		l-0.42,1.26l-0.48,1.26l-0.78,0.54l-0.84,0.54H47.195z M47.735,41.738l0.72-0.42l-0.42-0.72l-0.48-0.72l-0.72,0.42l-0.66,0.48
		l0.42,0.66l0.42,0.72L47.735,41.738z"/>
</g>
<g>
	<path fill="#FEFEFE" d="M11.895,23.478l-10.2,0.24l-0.48-0.54l-0.54-0.54v-8.46v-8.52h0.84h0.78l0.36,1.38l0.36,1.38l2.22,1.26
		l2.16,1.32l3.3-1.92l3.24-1.92h1.68h1.68l1.32,0.72l1.38,0.72l0.42-1.44l0.36-1.5h0.84h0.84l-0.18,8.82l-0.24,8.82L11.895,23.478z
		 M11.535,21.378h8.64v-5.04v-5.04l-2.04-0.96l-1.98-0.96l-0.84,0.06h-0.78l-3,2.04l-3,2.04v1.86v1.92h-1.86h-1.86l0.12-2.4
		l0.06-2.4l-1.02-0.42l-1.08-0.36v4.86v4.8H11.535z M16.095,19.878h-0.96l-0.9-1.08l-0.9-1.08l0.24-1.74l0.24-1.68l1.74-0.24
		l1.68-0.3l1.08,0.9l1.14,0.9v1.02v0.96l-1.2,1.2l-1.2,1.14H16.095z M16.455,16.878h0.96l-0.48-0.48l-0.48-0.48l-0.54,0.48
		l-0.48,0.48H16.455z M9.195,6.378h-0.84l-0.9-1.08l-0.9-1.08l0.24-1.74l0.24-1.68l1.86-0.3l1.8-0.24l0.96,1.26l0.9,1.26l-0.42,1.26
		l-0.48,1.26l-0.78,0.54l-0.84,0.54H9.195z M9.735,3.738l0.72-0.42l-0.42-0.72l-0.48-0.72l-0.72,0.42l-0.66,0.48l0.42,0.66
		l0.42,0.72L9.735,3.738z"/>
</g>
</svg>
